<svg xmlns="http://www.w3.org/2000/svg" version="1.1" xmlns:xlink="http://www.w3.org/1999/xlink" xmlns:svgjs="http://svgjs.dev/svgjs" width="1500" height="125" viewBox="0 0 1500 125"><g transform="matrix(1,0,0,1,-0.9090909090909918,0.4324751944221461)"><svg viewBox="0 0 396 33" data-background-color="#ffffff" preserveAspectRatio="xMidYMid meet" height="125" width="1500" xmlns="http://www.w3.org/2000/svg" xmlns:xlink="http://www.w3.org/1999/xlink"><g id="tight-bounds" transform="matrix(1,0,0,1,0.2400000000000091,-0.11417345132744572)"><svg viewBox="0 0 395.52 33.22834690265487" height="33.22834690265487" width="395.52"><g><svg viewBox="0 0 395.52 33.22834690265487" height="33.22834690265487" width="395.52"><g><svg viewBox="0 0 395.52 33.22834690265487" height="33.22834690265487" width="395.52"><g id="textblocktransform"><svg viewBox="0 0 395.52 33.22834690265487" height="33.22834690265487" width="395.52" id="textblock"><g><svg viewBox="0 0 395.52 33.22834690265487" height="33.22834690265487" width="395.52"><g transform="matrix(1,0,0,1,0,0)"><svg width="395.52" viewBox="2.92 -36.3 441.38 37.08" height="33.22834690265487" data-palette-color="#243cfc"><path d="M25.26 0.78L25.26 0.78Q15.89 0.78 9.4-1.46 2.92-3.7 2.92-9.69L2.92-9.69 2.92-10 7.6-10 7.6-9.69Q7.6-6.41 12.01-4.84 16.41-3.28 25.26-3.28L25.26-3.28Q33.8-3.28 38.31-4.69 42.81-6.09 42.81-8.75L42.81-8.75Q42.81-10.68 40.1-12.01 37.4-13.33 33.88-14.19 30.36-15.05 27.08-15.55 23.8-16.04 22.6-16.25L22.6-16.25Q20.21-16.67 17.03-17.19 13.85-17.71 11.02-18.8 8.18-19.9 6.2-21.88 4.22-23.85 4.22-27.14L4.22-27.14Q4.22-31.3 8.88-33.78 13.54-36.25 24.84-36.25L24.84-36.25Q37.45-36.25 41.82-33.36 46.2-30.47 46.2-25.99L46.2-25.99 46.2-25.68 41.46-25.68 41.46-25.99Q41.46-29.38 37.58-30.81 33.7-32.24 24.84-32.24L24.84-32.24Q16.35-32.24 12.6-31.04 8.85-29.84 8.85-26.93L8.85-26.93Q8.85-25.57 10.89-24.51 12.92-23.44 15.73-22.63 18.54-21.82 21.54-21.28 24.53-20.73 26.46-20.42L26.46-20.42Q36.93-18.75 42.11-16.43 47.29-14.11 47.29-8.75L47.29-8.75Q47.29-3.96 41.51-1.59 35.73 0.78 25.26 0.78ZM75.05 0.78L75.05 0.78Q71.3 0.78 67.71-0.23 64.11-1.25 61.3-3.31 58.49-5.36 56.77-8.49 55.05-11.61 55.05-15.83L55.05-15.83 55.05-35.57 59.74-35.57 59.74-15.83Q59.74-9.01 64.4-6.15 69.06-3.28 75.05-3.28L75.05-3.28Q80.94-3.28 85.65-6.2 90.36-9.11 90.36-15.83L90.36-15.83 90.36-35.57 94.95-35.57 94.95-15.83Q94.95-11.61 93.25-8.49 91.56-5.36 88.75-3.31 85.94-1.25 82.37-0.23 78.8 0.78 75.05 0.78ZM147.86 0L105.78 0 105.78-36.3 110.78-36.3 110.78-3.91 147.86-3.91 147.86 0ZM155.2 0L149.99 0 172.34-35.78 177.6-35.78 199.84 0 194.32 0 174.78-32.45 155.2 0ZM191.61-9.22L158.12-9.22 160.41-13.18 189.26-13.18 191.61-9.22ZM210.35 0L205.67 0 205.67-35.57 210.35-35.57 210.35-13.85 240.88-35.57 248.12-35.57 210.35-9.48 210.35 0ZM249.99 0L242.7 0 219.57-18.96 223.32-21.3 249.99 0ZM275.25 0.78L275.25 0.78Q265.87 0.78 259.39-1.46 252.9-3.7 252.9-9.69L252.9-9.69 252.9-10 257.59-10 257.59-9.69Q257.59-6.41 261.99-4.84 266.39-3.28 275.25-3.28L275.25-3.28Q283.79-3.28 288.29-4.69 292.8-6.09 292.8-8.75L292.8-8.75Q292.8-10.68 290.09-12.01 287.38-13.33 283.87-14.19 280.35-15.05 277.07-15.55 273.79-16.04 272.59-16.25L272.59-16.25Q270.2-16.67 267.02-17.19 263.84-17.71 261-18.8 258.16-19.9 256.19-21.88 254.21-23.85 254.21-27.14L254.21-27.14Q254.21-31.3 258.87-33.78 263.53-36.25 274.83-36.25L274.83-36.25Q287.44-36.25 291.81-33.36 296.19-30.47 296.19-25.99L296.19-25.99 296.19-25.68 291.45-25.68 291.45-25.99Q291.45-29.38 287.57-30.81 283.69-32.24 274.83-32.24L274.83-32.24Q266.34-32.24 262.59-31.04 258.84-29.84 258.84-26.93L258.84-26.93Q258.84-25.57 260.87-24.51 262.9-23.44 265.72-22.63 268.53-21.82 271.52-21.28 274.52-20.73 276.45-20.42L276.45-20.42Q286.91-18.75 292.1-16.43 297.28-14.11 297.28-8.75L297.28-8.75Q297.28-3.96 291.5-1.59 285.72 0.78 275.25 0.78ZM310.35 0L305.66 0 305.66-35.57 310.35-35.57 310.35-20.26 339.52-20.26 339.52-35.57 344.31-35.57 344.31 0 339.52 0 339.52-16.41 310.35-16.41 310.35 0ZM355.19 0L349.98 0 372.33-35.78 377.59-35.78 399.83 0 394.31 0 374.77-32.45 355.19 0ZM391.6-9.22L358.11-9.22 360.4-13.18 389.25-13.18 391.6-9.22ZM410.14 0L405.66 0 405.66-35.57 410.55-35.57 439.82-5.47 440.03-5.47 439.82-8.75 439.82-35.57 444.3-35.57 444.3 0 439.36 0 410.24-29.95 410.03-29.95 410.14-26.61 410.14 0Z" opacity="1" transform="matrix(1,0,0,1,0,0)" fill="#243cfc" class="wordmark-text-0" data-fill-palette-color="primary" id="text-0"></path></svg></g></svg></g></svg></g></svg></g></svg></g><defs></defs></svg><rect width="395.52" height="33.22834690265487" fill="none" stroke="none" visibility="hidden"></rect></g></svg></g></svg>